# xmcd CD database file generated by Grip 3.3.0
# 
# Track frame offsets:
#       150
#       81860
#       125675
#       176720
#       199830
# 
# Disc length: 4065 seconds
# 
# Revision: 5
# Processed by: cddbd v1.5.2PL0 Copyright (c) Steve Scherf et al.
# Submitted via: Grip 3.3.0
# 
DISCID=420fdf05
DTITLE=Ravi Shankar / In Celebration - Disc 2: Orchestral and Ensembles
DYEAR=1995
DGENRE=Instrumental
TTITLE0=V 7 1/2
TTITLE1=Jait
TTITLE2=Sandhya Raga
TTITLE3=Ghanashyam
TTITLE4=Tilak Shyam
EXTD=Angel CDCD 7243 5 55577 2 8\nProduced by George Harrison and Alan Kozl
EXTD=owski,\nin association with Ravi Shankar.\n1995
EXTT0=Based on Raga Vachaspati
EXTT1=Indian ensemble based on Raga Jait
EXTT2=evening raga based on Yaman Kalyan
EXTT3=Overture and opening music from the ballet "Bhanashyma"
EXTT4=sitar ensemble with Ravi Shankar and 4 students
PLAYORDER=
.
